<?xml version="1.0" encoding="utf-8"?>
<!-- Generator: Adobe Illustrator 24.0.0, SVG Export Plug-In . SVG Version: 6.00 Build 0)  -->
<svg version="1.1" id="Calque_1" focusable="false" xmlns="http://www.w3.org/2000/svg" xmlns:xlink="http://www.w3.org/1999/xlink"
	 x="0px" y="0px" viewBox="0 0 50 50" style="enable-background:new 0 0 50 50;" xml:space="preserve">
<style type="text/css">
	.st0{fill:#663399;}
	.st1{fill:#FFFFFF;}
</style>
<circle class="st0" cx="25" cy="25" r="25"/>
<path class="st1" d="M11.1,38.9c-3.8-3.7-5.7-8.8-5.7-13.6l19.5,19.3C19.8,44.5,14.8,42.7,11.1,38.9z M29.3,44.1L5.9,20.7
	C7.9,12,15.7,5.4,25,5.4c6.6,0,12.3,3.2,15.9,8l-2.7,2.3c-3-4.1-7.9-6.8-13.2-6.8c-7,0-12.9,4.5-15.2,10.7l20.5,20.5
	c5.2-1.8,9.1-6.2,10.4-11.6h-8.6V25h12.5C44.6,34.3,38,42.1,29.3,44.1z"/>
</svg>
